<svg width="16" height="18" viewBox="0 0 16 18" fill="none" xmlns="http://www.w3.org/2000/svg">
<g id="Icon" clip-path="url(#clip0_144_112)">
<path id="Vector" d="M9.8162 10.9821C9.8162 10.9821 9.9347 10.8635 10.1717 10.6263C10.4087 10.3892 10.5272 9.93539 10.5272 9.26501C10.5272 8.59462 10.2902 8.02226 9.8162 7.54793C9.34219 7.0736 8.77022 6.83643 8.1003 6.83643C7.43037 6.83643 6.8584 7.0736 6.3844 7.54793C5.91039 8.02226 5.67339 8.59462 5.67339 9.26501C5.67339 9.93539 5.91039 10.5078 6.3844 10.9821C6.8584 11.4564 7.43037 11.6936 8.1003 11.6936C8.77022 11.6936 9.34219 11.4564 9.8162 10.9821ZM10.7452 6.61824C10.7452 6.61824 10.9269 6.80007 11.2904 7.16372C11.6538 7.52738 11.8355 8.2278 11.8355 9.26501C11.8355 10.3022 11.4721 11.1845 10.7452 11.9118C10.0184 12.6391 9.13679 13.0027 8.1003 13.0027C7.06381 13.0027 6.18216 12.6391 5.45535 11.9118C4.72854 11.1845 4.36514 10.3022 4.36514 9.26501C4.36514 8.2278 4.72854 7.34555 5.45535 6.61824C6.18216 5.89094 7.06381 5.52728 8.1003 5.52728C9.13679 5.52728 10.0184 5.89094 10.7452 6.61824ZM12.6033 4.75887C12.6033 4.75887 12.646 4.80156 12.7313 4.88694C12.8166 4.97232 12.8593 5.13517 12.8593 5.3755C12.8593 5.61582 12.774 5.82137 12.6033 5.99213C12.4327 6.16289 12.2273 6.24826 11.9871 6.24826C11.747 6.24826 11.5416 6.16289 11.3709 5.99213C11.2003 5.82137 11.115 5.61582 11.115 5.3755C11.115 5.13517 11.2003 4.92963 11.3709 4.75887C11.5416 4.58811 11.747 4.50273 11.9871 4.50273C12.2273 4.50273 12.4327 4.58811 12.6033 4.75887ZM8.82552 3.2837C8.82552 3.2837 8.71571 3.28449 8.49609 3.28607C8.27647 3.28765 8.14454 3.28844 8.1003 3.28844C8.05606 3.28844 7.81431 3.28686 7.37507 3.2837C6.93582 3.28054 6.60244 3.28054 6.37492 3.2837C6.1474 3.28686 5.84245 3.29635 5.46009 3.31216C5.07772 3.32797 4.75224 3.35959 4.48364 3.40703C4.21504 3.45446 3.98909 3.51296 3.80581 3.58253C3.48981 3.70902 3.21173 3.89242 2.97156 4.13275C2.7314 4.37308 2.54812 4.65135 2.42172 4.96757C2.3522 5.15098 2.29374 5.37708 2.24634 5.64587C2.19893 5.91465 2.16733 6.24036 2.15153 6.62299C2.13573 7.00561 2.12625 7.31076 2.12309 7.53844C2.11993 7.76612 2.11993 8.09973 2.12309 8.53928C2.12625 8.97883 2.12783 9.22074 2.12783 9.26501C2.12783 9.30928 2.12625 9.55119 2.12309 9.99073C2.11993 10.4303 2.11993 10.7639 2.12309 10.9916C2.12625 11.2192 2.13573 11.5244 2.15153 11.907C2.16733 12.2897 2.19893 12.6154 2.24634 12.8841C2.29374 13.1529 2.3522 13.379 2.42172 13.5624C2.54812 13.8787 2.7314 14.1569 2.97156 14.3973C3.21173 14.6376 3.48981 14.821 3.80581 14.9475C3.98909 15.0171 4.21504 15.0756 4.48364 15.123C4.75224 15.1704 5.07772 15.202 5.46009 15.2179C5.84245 15.2337 6.1474 15.2431 6.37492 15.2463C6.60244 15.2495 6.93582 15.2495 7.37507 15.2463C7.81431 15.2431 8.05606 15.2416 8.1003 15.2416C8.14454 15.2416 8.38628 15.2431 8.82552 15.2463C9.26477 15.2495 9.59815 15.2495 9.82568 15.2463C10.0532 15.2431 10.3581 15.2337 10.7405 15.2179C11.1229 15.202 11.4484 15.1704 11.717 15.123C11.9856 15.0756 12.2115 15.0171 12.3948 14.9475C12.7108 14.821 12.9889 14.6376 13.229 14.3973C13.4692 14.1569 13.6525 13.8787 13.7789 13.5624C13.8484 13.379 13.9069 13.1529 13.9543 12.8841C14.0017 12.6154 14.0333 12.2897 14.0491 11.907C14.0649 11.5244 14.0743 11.2192 14.0775 10.9916C14.0807 10.7639 14.0807 10.4303 14.0775 9.99073C14.0743 9.55119 14.0728 9.30928 14.0728 9.26501C14.0728 9.22074 14.0743 8.97883 14.0775 8.53928C14.0807 8.09973 14.0807 7.76612 14.0775 7.53844C14.0743 7.31076 14.0649 7.00561 14.0491 6.62299C14.0333 6.24036 14.0017 5.91465 13.9543 5.64587C13.9069 5.37708 13.8484 5.15098 13.7789 4.96757C13.6525 4.65135 13.4692 4.37308 13.229 4.13275C12.9889 3.89242 12.7108 3.70902 12.3948 3.58253C12.2115 3.51296 11.9856 3.45446 11.717 3.40703C11.4484 3.35959 11.1229 3.32797 10.7405 3.31216C10.3581 3.29635 10.0532 3.28686 9.82568 3.2837C9.59815 3.28054 9.26477 3.28054 8.82552 3.2837ZM15.3336 6.25775C15.3652 6.8143 15.381 7.81672 15.381 9.26501C15.381 10.7133 15.3652 11.7157 15.3336 12.2723C15.2704 13.5877 14.8786 14.606 14.1581 15.3269C13.4376 16.0479 12.4201 16.44 11.1055 16.5033C10.5493 16.5349 9.54759 16.5507 8.1003 16.5507C6.653 16.5507 5.65127 16.5349 5.09511 16.5033C3.78053 16.44 2.763 16.0479 2.04251 15.3269C1.32203 14.606 0.930181 13.5877 0.866981 12.2723C0.83538 11.7157 0.81958 10.7133 0.81958 9.26501C0.81958 7.81672 0.83538 6.8143 0.866981 6.25775C0.930181 4.94228 1.32203 3.92405 2.04251 3.20306C2.763 2.48208 3.78053 2.08997 5.09511 2.02672C5.65127 1.9951 6.653 1.97929 8.1003 1.97929C9.54759 1.97929 10.5493 1.9951 11.1055 2.02672C12.4201 2.08997 13.4376 2.48208 14.1581 3.20306C14.8786 3.92405 15.2704 4.94228 15.3336 6.25775Z" fill="#7F56D9"/>
</g>
<defs>
<clipPath id="clip0_144_112">
<rect width="14.57" height="17" fill="white" transform="matrix(1 0 0 -1 0.815186 17.765)"/>
</clipPath>
</defs>
</svg>
