<svg width="15" height="18" viewBox="0 0 15 18" fill="none" xmlns="http://www.w3.org/2000/svg">
<g id="Icon" clip-path="url(#clip0_144_107)">
<path id="Vector" d="M11.232 10.8493C11.232 10.533 11.1704 10.2437 11.047 9.98124C10.9237 9.71878 10.7704 9.50217 10.5869 9.33141C10.4035 9.16065 10.1727 9.00571 9.89443 8.86657C9.61615 8.72743 9.35527 8.61992 9.11178 8.54402C8.86829 8.46813 8.5916 8.3954 8.2817 8.32583L7.2951 8.09815C7.10536 8.05388 6.96623 8.02068 6.87769 7.99854C6.78914 7.97641 6.67847 7.94004 6.54565 7.88945C6.41284 7.83885 6.31798 7.78826 6.26106 7.73766C6.20414 7.68707 6.15196 7.62066 6.10453 7.53844C6.05709 7.45623 6.03338 7.36136 6.03338 7.25385C6.03338 6.76687 6.48873 6.52338 7.39945 6.52338C7.6714 6.52338 7.91489 6.56132 8.12992 6.63722C8.34495 6.71311 8.51571 6.80323 8.64219 6.90758C8.76868 7.01194 8.88885 7.11787 9.00269 7.22539C9.11652 7.3329 9.24301 7.4246 9.38215 7.5005C9.52129 7.57639 9.67307 7.61434 9.83751 7.61434C10.1348 7.61434 10.3735 7.51315 10.5537 7.31076C10.734 7.10838 10.8241 6.86489 10.8241 6.5803C10.8241 6.23245 10.647 5.91781 10.2929 5.63638C9.9387 5.35494 9.48967 5.14149 8.94577 4.99603C8.40187 4.85057 7.82635 4.77784 7.2192 4.77784C6.78914 4.77784 6.37173 4.82685 5.96697 4.92488C5.56221 5.02291 5.18433 5.17153 4.83332 5.37075C4.48232 5.56997 4.20088 5.84508 3.98901 6.19609C3.77715 6.54709 3.67121 6.95344 3.67121 7.41512C3.67121 7.80091 3.73129 8.13768 3.85146 8.42544C3.97162 8.7132 4.14871 8.95195 4.38271 9.14168C4.61671 9.33141 4.86969 9.48478 5.14164 9.60178C5.41359 9.71878 5.73929 9.82155 6.11876 9.9101L7.5038 10.2516C8.073 10.3907 8.42717 10.5046 8.5663 10.5931C8.76868 10.7196 8.86987 10.9094 8.86987 11.1623C8.86987 11.409 8.74339 11.6129 8.49041 11.7742C8.23743 11.9355 7.9054 12.0161 7.49432 12.0161C7.17177 12.0161 6.88243 11.9655 6.62629 11.8643C6.37015 11.7631 6.16461 11.6414 6.00966 11.4991C5.85471 11.3568 5.71083 11.2145 5.57802 11.0722C5.44521 10.9299 5.29975 10.8082 5.14164 10.707C4.98353 10.6058 4.81277 10.5552 4.62936 10.5552C4.31314 10.5552 4.07439 10.6501 3.91312 10.8398C3.75185 11.0295 3.67121 11.2667 3.67121 11.5513C3.67121 12.1331 4.057 12.6312 4.82858 13.0454C5.60016 13.4597 6.52036 13.6668 7.58918 13.6668C8.05086 13.6668 8.49357 13.6083 8.91731 13.4913C9.34104 13.3743 9.72841 13.2051 10.0794 12.9838C10.4304 12.7624 10.7103 12.4667 10.919 12.0968C11.1277 11.7268 11.232 11.311 11.232 10.8493ZM14.6757 12.9079C14.6757 13.9134 14.3199 14.772 13.6084 15.4835C12.8969 16.195 12.0384 16.5507 11.0328 16.5507C10.2106 16.5507 9.47069 16.2977 8.81295 15.7918C8.32597 15.893 7.85164 15.9436 7.38996 15.9436C6.48557 15.9436 5.62071 15.7681 4.79538 15.4171C3.97004 15.0661 3.25854 14.5917 2.66089 13.9941C2.06323 13.3964 1.5889 12.6849 1.2379 11.8596C0.886893 11.0343 0.711391 10.1694 0.711391 9.26501C0.711391 8.80332 0.761986 8.32899 0.863177 7.84201C0.357224 7.18428 0.104248 6.44432 0.104248 5.62215C0.104248 4.61657 0.459996 3.75803 1.17149 3.04653C1.88299 2.33504 2.74152 1.97929 3.74711 1.97929C4.56928 1.97929 5.30923 2.23227 5.96697 2.73822C6.45395 2.63703 6.92828 2.58643 7.38996 2.58643C8.29435 2.58643 9.15921 2.76194 9.98455 3.11294C10.8099 3.46395 11.5214 3.93828 12.119 4.53593C12.7167 5.13359 13.191 5.84508 13.542 6.67042C13.893 7.49575 14.0685 8.36062 14.0685 9.26501C14.0685 9.72669 14.0179 10.201 13.9167 10.688C14.4227 11.3457 14.6757 12.0857 14.6757 12.9079Z" fill="#7F56D9"/>
</g>
<defs>
<clipPath id="clip0_144_107">
<rect width="14.58" height="17" fill="white" transform="matrix(1 0 0 -1 0.0998535 17.765)"/>
</clipPath>
</defs>
</svg>
