<svg width="17" height="18" viewBox="0 0 17 18" fill="none" xmlns="http://www.w3.org/2000/svg">
<g id="Icon" clip-path="url(#clip0_144_102)">
<path id="Vector" d="M16.1755 4.63553C15.7518 5.25532 15.2395 5.78341 14.6387 6.2198C14.645 6.30834 14.6482 6.44115 14.6482 6.61823C14.6482 7.44041 14.528 8.261 14.2877 9.08001C14.0473 9.89902 13.6821 10.6848 13.192 11.4374C12.7018 12.19 12.1184 12.8557 11.4417 13.4344C10.765 14.013 9.94913 14.4747 8.99414 14.8194C8.03916 15.1641 7.01776 15.3364 5.92997 15.3364C4.21605 15.3364 2.6476 14.8779 1.22461 13.9609C1.44596 13.9862 1.69262 13.9988 1.96456 13.9988C3.38756 13.9988 4.6556 13.5624 5.76869 12.6897C5.10463 12.677 4.51014 12.4731 3.98521 12.0778C3.46029 11.6825 3.0998 11.1781 2.90374 10.5647C3.11244 10.5963 3.30534 10.6121 3.48242 10.6121C3.75437 10.6121 4.02316 10.5773 4.28878 10.5077C3.58045 10.3623 2.99386 10.0097 2.52902 9.44999C2.06417 8.89028 1.83175 8.24044 1.83175 7.50049V7.46254C2.26181 7.70287 2.72349 7.83252 3.2168 7.85149C2.79939 7.57322 2.46735 7.20957 2.2207 6.76053C1.97405 6.3115 1.85073 5.82452 1.85073 5.29959C1.85073 4.74305 1.98986 4.22761 2.26814 3.75328C3.03339 4.69561 3.96466 5.4498 5.06194 6.01583C6.15923 6.58187 7.33398 6.89651 8.58622 6.95975C8.53562 6.71942 8.51032 6.48542 8.51032 6.25774C8.51032 5.41027 8.80915 4.68771 9.40681 4.09005C10.0045 3.4924 10.727 3.19357 11.5745 3.19357C12.4599 3.19357 13.2062 3.51611 13.8133 4.1612C14.5027 4.02839 15.1509 3.78174 15.7581 3.42125C15.5241 4.14855 15.0751 4.71143 14.411 5.10986C14.9992 5.04662 15.5873 4.88851 16.1755 4.63553Z" fill="#7F56D9"/>
</g>
<defs>
<clipPath id="clip0_144_102">
<rect width="15.8" height="17" fill="white" transform="matrix(1 0 0 -1 0.800049 17.765)"/>
</clipPath>
</defs>
</svg>
