<svg width="46" height="46" viewBox="0 0 46 46" fill="none" xmlns="http://www.w3.org/2000/svg">
<g id="Icon">
<path id="Vector" d="M35.5524 29.8025C35.7235 29.9736 35.8091 30.1704 35.8091 30.3929C35.8091 30.6153 35.7235 30.8121 35.5524 30.9833L34.2689 32.2667C34.0978 32.4379 33.901 32.5234 33.6785 32.5234C33.456 32.5234 33.2592 32.4379 33.0881 32.2667L22.9999 22.1786L12.9118 32.2667C12.7406 32.4379 12.5438 32.5234 12.3214 32.5234C12.0989 32.5234 11.9021 32.4379 11.731 32.2667L10.4475 30.9833C10.2764 30.8121 10.1908 30.6153 10.1908 30.3929C10.1908 30.1704 10.2764 29.9736 10.4475 29.8025L22.4095 17.8404C22.5807 17.6693 22.7775 17.5837 22.9999 17.5837C23.2224 17.5837 23.4192 17.6693 23.5904 17.8404L35.5524 29.8025Z" fill="#2B5CFD"/>
</g>
</svg>
