<svg width="16" height="17" viewBox="0 0 16 17" fill="none" xmlns="http://www.w3.org/2000/svg">
<g id="vuesax/linear/eye">
<g id="eye">
<path id="Vector" d="M10.3866 8.1999C10.3866 9.5199 9.31995 10.5866 7.99995 10.5866C6.67995 10.5866 5.61328 9.5199 5.61328 8.1999C5.61328 6.8799 6.67995 5.81323 7.99995 5.81323C9.31995 5.81323 10.3866 6.8799 10.3866 8.1999Z" stroke="#5C5C5C" stroke-linecap="round" stroke-linejoin="round"/>
<path id="Vector_2" d="M7.9999 13.7133C10.3532 13.7133 12.5466 12.3266 14.0732 9.9266C14.6732 8.9866 14.6732 7.4066 14.0732 6.4666C12.5466 4.0666 10.3532 2.67993 7.9999 2.67993C5.64656 2.67993 3.45323 4.0666 1.92656 6.4666C1.32656 7.4066 1.32656 8.9866 1.92656 9.9266C3.45323 12.3266 5.64656 13.7133 7.9999 13.7133Z" stroke="#5C5C5C" stroke-linecap="round" stroke-linejoin="round"/>
</g>
</g>
</svg>
